inDegrees=yes
name=ik_S57_A11_T01
DataType=double
version=3
OpenSimVersion=4.3-2021-08-27-4bc7ad9
endheader
time	pelvis_tilt	pelvis_list	pelvis_rotation	pelvis_tx	pelvis_ty	pelvis_tz	hip_flexion_r	hip_adduction_r	hip_rotation_r	knee_angle_r	knee_angle_r_beta	ankle_angle_r	subtalar_angle_r	mtp_angle_r	hip_flexion_l	hip_adduction_l	hip_rotation_l	knee_angle_l	knee_angle_l_beta	ankle_angle_l	subtalar_angle_l	mtp_angle_l	lumbar_extension	lumbar_bending	lumbar_rotation	arm_flex_r	arm_add_r	arm_rot_r	elbow_flex_r	pro_sup_r	wrist_flex_r	wrist_dev_r	arm_flex_l	arm_add_l	arm_rot_l	elbow_flex_l	pro_sup_l	wrist_flex_l	wrist_dev_l
4.279999999999997	0.6213211077358697	0.7735616236234333	35.61460699797784	0	0.9399999999999999	0	24.86403943368247	-8.445682179635671	-7.454414261169987	28.59580434218854	0.4990909380272812	0	0	0	24.86403943368247	-8.445682179635671	-7.454414261169987	28.59580434218854	0.4990909380272812	0	0	0	0.716756406198276	0.9116904714432067	11.64057066457227	57.4630482185793	4.209932839352414	4.47099079680139	33.94028469695035	94.17890296299292	0	0	1.764473578183702	-0.8471519797093303	0.5183633528329419	3.47564637570472	94.7453748920811	0	0
4.299999999999996	0.7391817658987546	0.6966796777330329	36.25135965025919	0	0.9399999999999999	0	24.87701586174088	-8.448936745349107	-7.457836944924076	28.6084450710576	0.4993115603658981	0	0	0	24.87701586174088	-8.448936745349107	-7.457836944924076	28.6084450710576	0.4993115603658981	0	0	0	0.7629293502756945	0.7943913797319782	11.81580963915398	60.84033023933316	4.221111602984152	3.682851836004236	35.0501480387064	94.8455203993209	0	0	1.745762177827198	-1.067829259202575	1.346618874153234	3.525214134556132	94.45921024514664	0	0
4.319999999999996	0.8665494336491185	0.6525963987812922	36.96079718081782	0	0.9399999999999999	0	25.05530873342479	-8.480472091373978	-7.496227828597666	28.8278081723243	0.5031401687403879	0	0	0	25.05530873342479	-8.480472091373978	-7.496227828597666	28.8278081723243	0.5031401687403879	0	0	0	0.8363928253183591	0.6889833600240719	11.91353926682538	64.14732342768144	4.126015388375111	3.250805093214193	35.72799063168591	94.88475954555264	0	0	1.727543939870846	-1.286214682984764	1.566047723883826	3.560371285006921	94.41375923252552	0	0
4.339999999999995	0.9608048388994218	0.6216721353088041	37.54707684602997	0	0.9399999999999999	0	25.230861474243	-8.51093504971184	-7.53364929462374	29.04451967014472	0.5069224979042828	0	0	0	25.230861474243	-8.51093504971184	-7.53364929462374	29.04451967014472	0.5069224979042828	0	0	0	0.8911352996483366	0.6110592067746745	11.92064061502683	67.27221026545635	3.968730898798642	3.393559760601487	36.58603795602811	94.36107410609124	0	0	1.720574153479192	-1.441779191038358	1.555062425654447	3.6388842316035	94.32926556547162	0	0
4.359999999999995	1.02525857567547	0.5699462100083684	38.05977508445109	0	0.9399999999999999	0	25.3958004822503	-8.539153863307384	-7.568545605178862	29.24839661328236	0.5104808218309358	0	0	0	25.3958004822503	-8.539153863307384	-7.568545605178862	29.24839661328236	0.5104808218309358	0	0	0	0.9101715692821962	0.5321421217430377	11.88427254423694	70.20883410302334	3.795035563217061	4.132010868326304	37.22158147010501	93.31361689997031	0	0	1.801088213064038	-1.583483683784033	1.41507620052871	3.679684474100118	94.27088328233185	0	0
4.379999999999995	1.029983396472874	0.5792040683423121	38.22086517387701	0	0.9399999999999999	0	25.40499117998676	-8.541380258548099	-7.570927923938845	29.25734291655358	0.5106369642789005	0	0	0	25.40499117998676	-8.541380258548099	-7.570927923938845	29.25734291655358	0.5106369642789005	0	0	0	0.9227145175842106	0.5344137120113605	11.73115952081272	72.91789703886081	3.958691615149065	5.535005856334789	34.34082600805851	91.63910488549928	0	0	1.780629133417161	-1.594107660571809	1.431329256138673	3.746951839040817	93.69495599967659	0	0
4.399999999999994	1.12317808910245	0.5284645301233925	38.78010908238213	0	0.9399999999999999	0	25.55947071789682	-8.567890748981608	-7.603670342717162	29.44697156428728	0.5139466085379581	0	0	0	25.55947071789682	-8.567890748981608	-7.603670342717162	29.44697156428728	0.5139466085379581	0	0	0	0.9625322013705755	0.438864643869291	11.74704119055648	75.4684951491505	3.736729938969128	6.563599779646245	35.05106589478693	90.36549678487464	0	0	1.827206672188627	-1.747511299308759	1.406037570413108	3.684150141791753	93.78353112350676	0	0
4.419999999999994	1.431604782033058	0.4206720249949413	39.79687633398118	0	0.9399999999999999	0	25.66585020088826	-8.58650310134874	-7.626449009502897	29.57614120411229	0.5162010440465197	0	0	0	25.66585020088826	-8.58650310134874	-7.626449009502897	29.57614120411229	0.5162010440465197	0	0	0	1.12898264893712	0.1658247985250489	12.25841598792727	77.69952250251944	2.55556222363345	7.194232825164689	32.53062618289824	88.6248404152128	0	0	1.795557110167317	-2.261379524350858	1.844419761148402	3.511164951587487	94.65666454820581	0	0
4.439999999999993	1.557294660098161	0.3861576732542208	40.62774694721499	0	0.9399999999999999	0	25.928121849582	-8.630948728473312	-7.681716938224868	29.89607665962268	0.5217849711390439	0	0	0	25.928121849582	-8.630948728473312	-7.681716938224868	29.89607665962268	0.5217849711390439	0	0	0	1.209879243110197	0.0415967583310113	12.06184748194824	79.81835304053841	2.281269328412771	8.182634508515159	38.30540116501842	87.54359955104482	0	0	1.775688733112895	-2.480012612442904	2.015290907859721	3.54004592442858	94.36323401695373	0	0
4.459999999999993	1.650731362585626	0.3365868312991555	41.0650647927819	0	0.9399999999999999	0	25.93934147039238	-8.633587338583157	-7.684584925107795	29.90692375883011	0.5219742887345039	0	0	0	25.93934147039238	-8.633587338583157	-7.684584925107795	29.90692375883011	0.5219742887345039	0	0	0	1.2492946305481	-0.05583348737559571	12.08230017727857	81.86096625077018	2.103114460048344	9.146989204315831	38.32263786826105	86.29773469072988	0	0	1.832985229860513	-2.639283401683972	2.044625933610209	3.466438768580175	94.59004807051838	0	0
4.479999999999992	1.724883936240834	0.2715128481589117	41.45226364669036	0	0.9399999999999999	0	25.95262036009404	-8.63670973996458	-7.687979753683819	29.91974924161775	0.5221981356373061	0	0	0	25.95262036009404	-8.63670973996458	-7.687979753683819	29.91974924161775	0.5221981356373061	0	0	0	1.263051402213467	-0.1550641307788308	12.0480306207959	83.74326305935729	2.102497502637899	9.851399015956421	38.29072605689424	85.31499455854491	0	0	1.996550867654874	-2.828417907978157	1.58030127426233	3.353837968942199	94.97915665646735	0	0
4.499999999999992	1.84129185684453	0.1987762997855175	41.87798542660601	0	0.9399999999999999	0	25.95948007122367	-8.638316428760577	-7.689729535410966	29.92639164395656	0.5223140674283605	0	0	0	25.95948007122367	-8.638316428760577	-7.689729535410966	29.92639164395656	0.5223140674283605	0	0	0	1.302364710960103	-0.2868030539793501	12.07713063176968	85.43888621181827	2.127500343416294	10.49071868480487	38.21738062921204	84.08178019030042	0	0	2.083240651062583	-3.070313563529835	1.683382062002136	3.407304465496966	94.62345490746887	0	0
4.519999999999992	2.011877975914823	0.189334103495482	42.40932498357147	0	0.9399999999999999	0	25.96835603430717	-8.640396757925796	-7.691994886060548	29.9349755559614	0.5224638849555465	0	0	0	25.96835603430717	-8.640396757925796	-7.691994886060548	29.9349755559614	0.5224638849555465	0	0	0	1.42279998798965	-0.4045516239526917	12.21789270196532	86.75611234429135	1.8811502514842	11.12274817687326	37.99255126505503	82.64297093745685	0	0	1.987997488053066	-3.307699175765485	2.012209171337033	3.400087970788721	94.63451027649299	0	0
4.539999999999991	2.180236627092125	0.1800362551076154	42.87024951152637	0	0.9399999999999999	0	25.97740338174129	-8.642513196560671	-7.694301647572461	29.94373225214749	0.5226167181355905	0	0	0	25.97740338174129	-8.642513196560671	-7.694301647572461	29.94373225214749	0.5226167181355905	0	0	0	1.540904073661614	-0.5199388665800183	12.34950134675335	88.00110728605428	1.710966177125701	11.51677308535139	37.65151110306118	81.53555417808565	0	0	1.834800392160817	-3.557655880576017	2.620690055481554	3.432351144424541	94.47734498386521	0	0
